<?xml version="1.0" encoding="UTF-8"?>
<svg width="149px" height="26px" viewBox="0 0 149 26" version="1.1" xmlns="http://www.w3.org/2000/svg" xmlns:xlink="http://www.w3.org/1999/xlink">
    <!-- Generator: Sketch 45.2 (43514) - http://www.bohemiancoding.com/sketch -->
    <title>Premi-um</title>
    <desc>Created with Sketch.</desc>
    <defs></defs>
    <g id="Page-1" stroke="none" stroke-width="1" fill="none" fill-rule="evenodd">
        <g id="プロフィール（専門家）" transform="translate(-301.000000, -94.000000)" fill="#FFFFFF">
            <g id="Top-bar" transform="translate(0.000000, 2.000000)">
                <path d="M311.72,93.152 C314.408,93.152 317.8,94.144 317.8,98.848 L317.8,101.888 C317.8,106.592 314.408,107.616 311.72,107.616 L303.528,107.616 L303.528,117.6 L301,117.6 L301,93.152 L311.72,93.152 Z M315.208,98.976 C315.208,96.704 313.96,95.328 311.72,95.328 L303.496,95.328 L303.496,105.408 L311.752,105.408 C313.96,105.408 315.208,104.032 315.208,101.76 L315.208,98.976 Z M324.7,103.2 L324.412,98.72 L322.268,98.72 L322.268,117.6 L324.828,117.6 L324.828,105.504 C325.436,104.736 325.98,104.064 326.46,103.488 C326.94,102.912 327.356,102.432 327.836,102.048 C328.764,101.28 329.82,100.896 331.612,100.896 L332.124,100.896 L332.124,98.72 L331.612,98.72 C329.5,98.72 328.092,99.392 327.068,100.256 C326.556,100.704 326.14,101.216 325.756,101.728 L324.7,103.2 Z M343.728,98.72 C347.184,98.72 350.256,99.904 350.256,103.872 L350.256,104.832 C350.256,108.832 347.152,109.728 343.728,109.728 L337.808,109.728 C337.808,110.592 337.808,111.392 337.84,112.096 C337.872,112.768 337.936,113.376 338.16,113.888 C338.576,114.88 339.536,115.424 341.584,115.424 L349.008,115.424 L349.008,117.6 L341.584,117.6 C337.456,117.6 335.28,116.384 335.28,111.968 L335.28,103.872 C335.28,99.904 338.288,98.72 341.776,98.72 L343.728,98.72 Z M341.744,100.896 C339.248,100.896 337.872,101.312 337.872,104.16 L337.872,107.808 L343.728,107.808 C346.224,107.808 347.664,107.392 347.664,104.544 C347.664,101.44 346.64,100.896 343.76,100.896 L341.744,100.896 Z M376.996,117.6 L379.588,117.6 L379.588,104.064 C379.588,100.64 377.572,98.56 374.564,98.56 C372.484,98.56 369.924,99.712 368.292,101.536 C367.62,99.616 365.924,98.56 363.78,98.56 C361.86,98.56 359.524,99.552 357.828,101.312 L357.636,99.104 L355.524,99.104 L355.524,117.6 L358.052,117.6 L358.052,103.328 C359.236,102.016 361.284,100.608 363.044,100.608 C365.06,100.608 366.212,101.888 366.212,104.096 L366.212,117.6 L368.804,117.6 L368.804,104.064 L368.74,103.36 C370.02,102.048 372.068,100.608 373.86,100.608 C375.844,100.608 376.996,101.888 376.996,104.096 L376.996,117.6 Z M388.024,92 L385.528,92 L385.528,95.52 L388.024,95.52 L388.024,92 Z M388.024,98.72 L385.528,98.72 L385.528,117.6 L388.024,117.6 L388.024,98.72 Z M400.268,106.016 L393.452,106.016 L393.452,108.512 L400.268,108.512 L400.268,106.016 Z M419.84,112.256 L419.84,98.72 L417.28,98.72 L417.28,112.192 C417.28,115.136 415.648,115.424 413.312,115.424 L411.616,115.424 C409.568,115.424 407.68,115.104 407.68,111.936 L407.68,98.72 L405.12,98.72 L405.12,112.256 C405.12,115.808 407.296,117.6 411.616,117.6 L413.28,117.6 C417.6,117.6 419.84,115.808 419.84,112.256 Z M446.74,117.6 L449.332,117.6 L449.332,104.064 C449.332,100.64 447.316,98.56 444.308,98.56 C442.228,98.56 439.668,99.712 438.036,101.536 C437.364,99.616 435.668,98.56 433.524,98.56 C431.604,98.56 429.268,99.552 427.572,101.312 L427.38,99.104 L425.268,99.104 L425.268,117.6 L427.796,117.6 L427.796,103.328 C428.98,102.016 431.028,100.608 432.788,100.608 C434.804,100.608 435.956,101.888 435.956,104.096 L435.956,117.6 L438.548,117.6 L438.548,104.064 L438.484,103.36 C439.764,102.048 441.812,100.608 443.604,100.608 C445.588,100.608 446.74,101.888 446.74,104.096 L446.74,117.6 Z" id="Premi-um"></path>
            </g>
        </g>
    </g>
</svg>