<?xml version="1.0" encoding="UTF-8"?>
<svg width="36px" height="32px" viewBox="0 0 36 32" version="1.1" xmlns="http://www.w3.org/2000/svg" xmlns:xlink="http://www.w3.org/1999/xlink">
    <!-- Generator: Sketch 45.2 (43514) - http://www.bohemiancoding.com/sketch -->
    <title>Icon</title>
    <desc>Created with Sketch.</desc>
    <defs></defs>
    <g id="Page-1" stroke="none" stroke-width="1" fill="none" fill-rule="evenodd">
        <g id="ABOUT" transform="translate(-37.000000, -280.000000)" fill="#4A4A4A">
            <path d="M49.7314185,303.895367 C43.798838,303.895367 38.9732515,298.985415 38.9732515,292.951353 C38.9732515,286.916288 43.798838,282.007339 49.7314185,282.007339 L60.2685815,282.007339 C66.2001754,282.007339 71.0267485,286.916288 71.0267485,292.951353 C71.0267485,298.985415 66.2001754,303.895367 60.2685815,303.895367 L49.7314185,303.895367 Z M73,292.951353 C73,300.092463 67.2884236,305.902707 60.2685815,305.902707 L59.6933786,305.902707 C60.1531462,308.232224 62.1777023,309.992661 64.6008551,309.992661 C65.1454725,309.992661 65.5874808,310.442305 65.5874808,310.99633 C65.5874808,311.550356 65.1454725,312 64.6008551,312 C61.0874808,312 58.1798948,309.343286 57.6984214,305.902707 L49.7314185,305.902707 C42.7115764,305.902707 37,300.092463 37,292.951353 C37,285.80924 42.7115764,280 49.7314185,280 L60.2685815,280 C67.2884236,280 73,285.80924 73,292.951353 Z M47.6226047,291.529354 C46.8510634,291.529354 46.224556,292.165681 46.224556,292.951554 C46.224556,293.736424 46.8510634,294.37275 47.6226047,294.37275 C48.394146,294.37275 49.0206534,293.736424 49.0206534,292.951554 C49.0206534,292.165681 48.394146,291.529354 47.6226047,291.529354 Z M54.5289849,291.529354 C53.7574435,291.529354 53.1309362,292.165681 53.1309362,292.951554 C53.1309362,293.736424 53.7574435,294.37275 54.5289849,294.37275 C55.3005262,294.37275 55.9270335,293.736424 55.9270335,292.951554 C55.9270335,292.165681 55.3005262,291.529354 54.5289849,291.529354 Z M61.4353651,294.373051 C62.2069064,294.373051 62.8334137,293.736725 62.8334137,292.950852 C62.8334137,292.165982 62.2069064,291.529655 61.4353651,291.529655 C60.6638237,291.529655 60.0373164,292.165982 60.0373164,292.950852 C60.0373164,293.736725 60.6638237,294.373051 61.4353651,294.373051 Z" id="Icon"></path>
        </g>
    </g>
</svg>